<svg width="389" height="34" viewBox="0 0 389 34" fill="none" xmlns="http://www.w3.org/2000/svg">
<g clip-path="url(#clip0_319_785)">
<path d="M46.7001 0.0486196C47.0011 0.040293 47.3006 0.09501 47.5793 0.209261C47.8579 0.323512 48.1096 0.494771 48.3182 0.712041C48.5339 0.921802 48.7041 1.17371 48.8182 1.45208C48.9324 1.73046 48.988 2.02935 48.9816 2.33014V24.7894C48.9914 25.652 49.2468 26.4939 49.7179 27.2166C50.1805 27.9257 50.8539 28.4719 51.6434 28.778C51.8974 28.9058 52.1708 28.9905 52.4524 29.0288C52.7198 29.0744 52.9903 29.0987 53.2615 29.1017C54.1272 29.1134 54.9753 28.8561 55.6886 28.3654C56.387 27.9143 56.9294 27.2589 57.242 26.4884C57.4813 25.9536 57.608 25.3753 57.6142 24.7894V2.28969C57.6486 1.71755 57.9 1.18011 58.3173 0.787149C58.7346 0.394191 59.2861 0.175361 59.8593 0.175361C60.4325 0.175361 60.984 0.394191 61.4013 0.787149C61.8186 1.18011 62.0701 1.71755 62.1044 2.28969V24.749C62.1271 26.5166 61.5982 28.2473 60.5915 29.7003C59.6349 31.133 58.283 32.2572 56.7 32.9366C55.349 33.4985 53.8803 33.7186 52.424 33.5775C50.9676 33.4363 49.5685 32.9383 48.3506 32.1275C47.6519 31.638 47.0208 31.0586 46.4736 30.4042C45.9236 29.7501 45.4762 29.0163 45.1467 28.2279C44.6896 27.1393 44.4558 25.97 44.459 24.7894V2.28969C44.4632 1.69587 44.7004 1.12745 45.1196 0.706789C45.5387 0.286129 46.1063 0.0468749 46.7001 0.0405273" fill="white"/>
<path d="M73.875 5.18599C73.309 5.5708 72.8654 6.10992 72.5967 6.73937C72.411 7.17392 72.3174 7.64222 72.3216 8.11476C72.315 8.63606 72.4227 9.15249 72.6371 9.62768C72.8739 10.2378 73.1982 10.8101 73.5999 11.3267C74.0411 11.9267 74.5338 12.487 75.0724 13.0014C75.6792 13.592 76.4478 14.2878 77.362 15.0888L78.6726 16.2053C79.1419 16.6179 79.6111 17.071 80.0642 17.5564C80.5108 17.999 80.9321 18.4663 81.3263 18.956C81.6823 19.401 82.0059 19.8379 82.3134 20.2667C82.7555 20.9037 83.1094 21.5977 83.3651 22.3298C83.783 23.3581 84.0026 24.4561 84.0124 25.566C84.0157 27.1768 83.5181 28.7488 82.5885 30.0643C81.7008 31.3432 80.4813 32.3558 79.061 32.9931C78.0754 33.4116 77.0169 33.6316 75.9462 33.6403C74.3365 33.6439 72.7652 33.1493 71.4478 32.2245C70.146 31.36 69.1252 30.1339 68.511 28.697C68.1108 27.7047 67.9075 26.644 67.9123 25.5741C67.9088 25.2737 67.9657 24.9756 68.0796 24.6977C68.1936 24.4197 68.3623 24.1675 68.5757 23.956C68.8926 23.6441 69.2948 23.4331 69.7315 23.3497C70.1682 23.2663 70.6198 23.3142 71.0293 23.4874C71.4388 23.6605 71.7878 23.9512 72.0322 24.3226C72.2766 24.694 72.4055 25.1295 72.4025 25.5741C72.4121 26.2754 72.6196 26.9597 73.0012 27.5482C73.3291 28.0368 73.774 28.4356 74.2954 28.7084C74.8169 28.9811 75.3982 29.119 75.9866 29.1096C76.6879 29.1167 77.3743 28.9077 77.9526 28.511C78.5113 28.1127 78.955 27.5741 79.239 26.9495C79.4225 26.5001 79.516 26.019 79.5141 25.5336C79.5182 25.0117 79.4077 24.4953 79.1905 24.0207C78.964 23.4407 78.6562 22.8959 78.2762 22.4026C77.8134 21.8079 77.3163 21.2406 76.7876 20.7036C76.1889 20.0968 75.4203 19.3929 74.4737 18.6001L72.7019 16.982C72.1094 16.4447 71.5501 15.8719 71.0271 15.2668C69.9388 14.1364 69.0693 12.8142 68.4624 11.3671C68.0472 10.3384 67.8303 9.24033 67.8233 8.13094C67.8205 7.32398 67.9433 6.5215 68.1874 5.75233C68.4281 4.99096 68.7681 4.26465 69.1987 3.59216C70.083 2.30593 71.3109 1.29394 72.7423 0.671485C73.7225 0.2368 74.785 0.0187862 75.8572 0.032333C77.4754 0.0138475 79.0601 0.494068 80.3959 1.40772C81.6792 2.29272 82.695 3.51282 83.3328 4.93518C83.7333 5.94126 83.9339 7.01576 83.9234 8.09858C83.9344 8.54664 83.8103 8.98765 83.5673 9.36423C83.3243 9.74082 82.9735 10.0356 82.5607 10.2101C82.1479 10.3847 81.6921 10.4309 81.2526 10.3429C80.8132 10.2549 80.4104 10.0367 80.0966 9.71668C79.8809 9.50692 79.7107 9.25501 79.5966 8.97664C79.4824 8.69826 79.4268 8.39937 79.4332 8.09858C79.4313 7.38349 79.2234 6.68409 78.8345 6.08404C78.4239 5.51435 77.864 5.06916 77.2164 4.79765C76.7809 4.61502 76.3132 4.52149 75.841 4.52257C75.1314 4.5264 74.441 4.75278 73.8669 5.16981" fill="white"/>
<path d="M93.8736 4.71684C93.7971 4.79598 93.7375 4.88989 93.6986 4.99284C93.6596 5.09578 93.6421 5.20559 93.6471 5.31554V13.6973C93.6399 13.8039 93.6564 13.9107 93.6956 14.01C93.7348 14.1094 93.7956 14.1988 93.8736 14.2717C94.0389 14.4158 94.2532 14.4911 94.4723 14.4821H100.475C100.777 14.4728 101.076 14.527 101.355 14.6413C101.634 14.7556 101.886 14.9274 102.094 15.1455C102.308 15.3559 102.478 15.6079 102.592 15.8861C102.706 16.1643 102.762 16.4629 102.757 16.7636C102.753 17.3574 102.516 17.9259 102.096 18.3465C101.677 18.7672 101.11 19.0064 100.516 19.0128H94.5127C94.4028 19.0078 94.293 19.0254 94.19 19.0643C94.0871 19.1033 93.9932 19.1628 93.914 19.2393C93.8375 19.3184 93.778 19.4124 93.739 19.5153C93.7001 19.6182 93.6826 19.7281 93.6875 19.838V28.2279C93.6859 28.3302 93.7051 28.4317 93.7441 28.5263C93.783 28.6209 93.8409 28.7065 93.914 28.778C93.9932 28.8545 94.0871 28.9141 94.19 28.953C94.293 28.992 94.4028 29.0095 94.5127 29.0046H102.806C103.401 29.0088 103.97 29.2471 104.391 29.668C104.812 30.0889 105.05 30.6585 105.055 31.2537C105.058 31.5541 105.001 31.8522 104.887 32.1302C104.773 32.4081 104.605 32.6604 104.391 32.8718C104.183 33.0891 103.931 33.2604 103.652 33.3746C103.374 33.4889 103.074 33.5436 102.773 33.5353H91.3979C91.0968 33.5436 90.7974 33.4889 90.5187 33.3746C90.24 33.2604 89.9884 33.0891 89.7798 32.8718C89.5664 32.6604 89.3977 32.4081 89.2837 32.1302C89.1698 31.8522 89.1128 31.5541 89.1164 31.2537V2.28969C89.1247 1.69578 89.3644 1.12854 89.7844 0.708542C90.2044 0.288542 90.7716 0.0488935 91.3655 0.0405273H102.733C103.329 0.0405273 103.901 0.277489 104.323 0.699289C104.745 1.12109 104.982 1.69317 104.982 2.28969C104.982 2.8862 104.745 3.45829 104.323 3.88009C103.901 4.30189 103.329 4.53885 102.733 4.53885H94.4723C94.3623 4.5339 94.2525 4.55144 94.1496 4.59039C94.0466 4.62934 93.9527 4.68889 93.8736 4.76538" fill="white"/>
<path d="M112.393 0.0483609C112.985 0.0546749 113.552 0.292812 113.971 0.711734C114.39 1.13066 114.628 1.69702 114.634 2.28943V24.7487C114.648 25.6107 114.903 26.4515 115.37 27.1759C115.835 27.8829 116.508 28.4284 117.296 28.7373C117.55 28.8651 117.823 28.9498 118.105 28.9881C118.386 29.0358 118.67 29.0601 118.954 29.0609C119.802 29.0627 120.631 28.8162 121.34 28.3518C122.049 27.8873 122.606 27.2254 122.943 26.4477C123.176 25.9112 123.3 25.3336 123.307 24.7487V2.28943C123.3 1.98784 123.356 1.68816 123.472 1.40954C123.588 1.13091 123.76 0.879488 123.979 0.671328C124.184 0.461438 124.43 0.294695 124.701 0.180861C124.971 0.0670279 125.262 0.00839354 125.556 0.00839354C125.85 0.00839354 126.141 0.0670279 126.412 0.180861C126.683 0.294695 126.928 0.461438 127.134 0.671328C127.352 0.879488 127.525 1.13091 127.64 1.40954C127.756 1.68816 127.812 1.98784 127.805 2.28943V24.7487C127.824 26.5157 127.295 28.2451 126.292 29.7001C125.334 31.1339 123.979 32.2583 122.393 32.9363C121.044 33.5003 119.576 33.7216 118.12 33.5805C116.665 33.4393 115.267 32.94 114.051 32.1272C113.353 31.6378 112.722 31.0584 112.174 30.404C111.625 29.7481 111.175 29.0148 110.84 28.2276C110.386 27.1379 110.152 25.9694 110.152 24.7892V2.28943C110.146 1.98863 110.201 1.68975 110.315 1.41137C110.429 1.13299 110.6 0.881089 110.815 0.671328C111.024 0.454057 111.276 0.282798 111.554 0.168547C111.833 0.0542964 112.132 -0.000420715 112.433 0.00790591" fill="white"/>
<path d="M161.437 31.3588C161.442 31.6534 161.386 31.9457 161.271 32.2173C161.157 32.4889 160.988 32.7337 160.774 32.9365C160.564 33.1514 160.312 33.3211 160.033 33.4351C159.755 33.5492 159.457 33.6053 159.156 33.5999C158.563 33.5916 157.997 33.353 157.578 32.9348C157.158 32.5165 156.917 31.9513 156.907 31.3588L156.955 8.11477C156.958 7.39289 156.735 6.68824 156.316 6.10023C155.993 5.618 155.556 5.22309 155.044 4.95066C154.531 4.67822 153.96 4.53672 153.379 4.53876C152.678 4.5492 151.994 4.75667 151.405 5.13746C150.806 5.51408 150.355 6.08543 150.127 6.75556C149.941 7.19011 149.848 7.65841 149.852 8.13095V31.375C149.856 31.6696 149.8 31.9619 149.686 32.2335C149.572 32.505 149.402 32.7499 149.188 32.9526C148.978 33.1676 148.726 33.3372 148.448 33.4513C148.17 33.5654 147.871 33.6215 147.57 33.6161C147.269 33.6244 146.97 33.5697 146.691 33.4554C146.412 33.3412 146.161 33.1699 145.952 32.9526C145.738 32.7499 145.569 32.505 145.455 32.2335C145.341 31.9619 145.284 31.6696 145.289 31.375V8.11477C145.292 7.39289 145.068 6.68824 144.65 6.10023C144.327 5.618 143.89 5.22309 143.377 4.95066C142.865 4.67822 142.293 4.53672 141.713 4.53876C141.012 4.5492 140.328 4.75667 139.739 5.13746C139.139 5.51408 138.688 6.08543 138.46 6.75556C138.275 7.19011 138.181 7.65841 138.185 8.13095V31.375C138.188 31.6693 138.131 31.961 138.016 32.2323C137.902 32.5036 137.734 32.7487 137.522 32.9526C137.311 33.1672 137.059 33.3366 136.781 33.4507C136.503 33.5647 136.204 33.621 135.904 33.6161C135.609 33.6193 135.318 33.562 135.046 33.4479C134.775 33.3338 134.53 33.1653 134.326 32.9526C134.112 32.7499 133.943 32.505 133.829 32.2335C133.715 31.9619 133.658 31.6696 133.663 31.375V8.11477C133.643 6.49635 134.123 4.91132 135.038 3.57599C135.905 2.27098 137.146 1.25851 138.598 0.671495C139.075 0.431091 139.585 0.262079 140.111 0.169881C140.645 0.0776484 141.187 0.0316335 141.729 0.0323433C143.346 0.0236274 144.928 0.502985 146.268 1.40773C146.741 1.7004 147.173 2.05402 147.554 2.4595C148.316 1.67669 149.238 1.06691 150.256 0.671495C150.733 0.431091 151.243 0.262079 151.769 0.169881C152.304 0.0776484 152.845 0.0316335 153.387 0.0323433C155.004 0.0236274 156.586 0.502985 157.926 1.40773C159.219 2.26963 160.225 3.49794 160.814 4.93519C161.234 5.93725 161.451 7.01231 161.454 8.09859L161.437 31.3588Z" fill="white"/>
<path d="M170.063 9.62418e-05C170.662 0.0107226 171.234 0.256888 171.653 0.685357C172.072 1.11383 172.306 1.69016 172.304 2.28971V13.7054C172.3 13.816 172.319 13.9261 172.359 14.0291C172.4 14.1321 172.461 14.2257 172.539 14.3041C172.609 14.3785 172.695 14.4371 172.789 14.4762C172.884 14.5152 172.986 14.5338 173.089 14.5307H201.033C201.136 14.5333 201.238 14.5145 201.332 14.4754C201.427 14.4364 201.513 14.3781 201.584 14.3041C201.661 14.2257 201.723 14.1321 201.763 14.0291C201.803 13.9261 201.822 13.816 201.818 13.7054V2.28971C201.826 1.69718 202.065 1.13113 202.483 0.711349C202.902 0.29157 203.467 0.0509999 204.059 0.0405513C204.361 0.0352401 204.66 0.0921279 204.938 0.207668C205.217 0.323207 205.468 0.494918 205.677 0.712065C205.897 0.919295 206.07 1.17055 206.186 1.4494C206.302 1.72824 206.357 2.02838 206.349 2.33017V31.3508C206.353 31.652 206.295 31.9508 206.18 32.229C206.064 32.5072 205.893 32.759 205.677 32.9689C205.468 33.185 205.216 33.3555 204.938 33.4697C204.659 33.5838 204.36 33.6392 204.059 33.6324C203.758 33.6412 203.458 33.5867 203.18 33.4724C202.901 33.3581 202.649 33.1866 202.441 32.9689C202.226 32.7586 202.057 32.5066 201.942 32.2284C201.828 31.9501 201.772 31.6515 201.778 31.3508V19.8057C201.782 19.6951 201.763 19.585 201.722 19.482C201.682 19.379 201.621 19.2854 201.543 19.207C201.395 19.0643 201.198 18.9833 200.993 18.9804H173.089C172.987 18.9793 172.885 18.9988 172.791 19.0377C172.696 19.0766 172.61 19.1342 172.539 19.207C172.461 19.2854 172.4 19.379 172.359 19.482C172.319 19.585 172.3 19.6951 172.304 19.8057V31.2699C172.309 31.5706 172.253 31.8692 172.139 32.1474C172.025 32.4257 171.855 32.6777 171.641 32.888C171.437 33.101 171.192 33.2699 170.921 33.384C170.649 33.4981 170.357 33.5551 170.063 33.5515C169.762 33.5583 169.463 33.5029 169.185 33.3887C168.906 33.2746 168.654 33.1041 168.445 32.888C168.229 32.6781 168.058 32.4263 167.942 32.1481C167.827 31.8699 167.769 31.5711 167.773 31.2699V2.28971C167.765 1.98793 167.82 1.68779 167.936 1.40894C168.052 1.1301 168.225 0.87884 168.445 0.67161C168.654 0.454463 168.905 0.282758 169.184 0.167219C169.462 0.051679 169.762 -0.00521491 170.063 9.62418e-05Z" fill="white"/>
<path d="M216.55 32.9362C216.344 33.1463 216.098 33.3132 215.826 33.4271C215.554 33.5411 215.263 33.5998 214.968 33.5998C214.674 33.5998 214.382 33.5411 214.111 33.4271C213.839 33.3132 213.593 33.1463 213.387 32.9362C213.172 32.7255 213.003 32.4735 212.889 32.1953C212.774 31.9171 212.718 31.6187 212.723 31.3181V2.28931C212.717 1.98851 212.772 1.68962 212.887 1.41125C213.001 1.13287 213.171 0.880964 213.387 0.671203C213.705 0.360496 214.107 0.150585 214.544 0.0678033C214.981 -0.0149786 215.432 0.0330521 215.842 0.205871C216.251 0.378691 216.601 0.668607 216.846 1.03925C217.092 1.40989 217.222 1.84476 217.222 2.28931V31.3019C217.227 31.6033 217.17 31.9025 217.054 32.1809C216.939 32.4593 216.767 32.7109 216.55 32.92" fill="white"/>
<path d="M225.516 0.0484216C226.109 0.0547356 226.675 0.292872 227.094 0.711794C227.513 1.13072 227.751 1.69708 227.757 2.28949V28.2762C227.756 28.3792 227.776 28.4812 227.817 28.5759C227.857 28.6706 227.917 28.7559 227.992 28.8264C228.069 28.9033 228.162 28.9638 228.263 29.0041C228.365 29.0444 228.473 29.0638 228.582 29.061H234.246C234.54 29.0563 234.833 29.1129 235.104 29.2271C235.376 29.3413 235.621 29.5107 235.823 29.7244C236.042 29.9323 236.215 30.1836 236.331 30.4623C236.446 30.741 236.502 31.0409 236.495 31.3425C236.5 31.6439 236.443 31.9431 236.328 32.2216C236.212 32.5 236.041 32.7516 235.823 32.9606C235.621 33.1744 235.376 33.3438 235.104 33.4579C234.833 33.5721 234.54 33.6287 234.246 33.6241H225.516C225.216 33.6276 224.918 33.5707 224.64 33.4567C224.362 33.3427 224.11 33.174 223.898 32.9606C223.677 32.7536 223.502 32.5027 223.384 32.2241C223.265 31.9455 223.206 31.6452 223.21 31.3425V2.28949C223.205 1.98657 223.263 1.68585 223.381 1.40701C223.5 1.12817 223.676 0.877495 223.898 0.671388C224.11 0.457994 224.362 0.289299 224.64 0.17533C224.918 0.0613605 225.216 0.00444403 225.516 0.00796656" fill="white"/>
<path d="M243.774 32.4107C242.847 31.6219 242.216 30.5402 241.986 29.3444L237.084 2.71038C236.986 2.11838 237.116 1.51122 237.448 1.01137C237.81 0.527391 238.331 0.18653 238.92 0.0486059H239.341C239.86 0.050685 240.362 0.237039 240.757 0.574484C241.18 0.895544 241.468 1.36284 241.566 1.88515L246.331 27.5968C246.334 27.697 246.357 27.7956 246.4 27.886C246.444 27.9765 246.505 28.0568 246.582 28.1217C246.658 28.1866 246.747 28.2347 246.844 28.2627C246.94 28.2908 247.041 28.2982 247.14 28.2845C247.323 28.2834 247.499 28.2207 247.642 28.1065C247.797 27.9795 247.896 27.7963 247.917 27.5968L252.69 1.88515C252.782 1.36877 253.053 0.901317 253.455 0.565293C253.858 0.22927 254.366 0.0462774 254.891 0.0486059H255.295C255.866 0.198004 256.368 0.537653 256.719 1.01137C257.046 1.51338 257.176 2.11852 257.083 2.71038L252.132 29.4091C251.947 30.5985 251.327 31.6768 250.393 32.4349C249.931 32.808 249.412 33.1031 248.855 33.3087C248.293 33.5252 247.694 33.6349 247.092 33.6323C245.884 33.6389 244.713 33.2143 243.791 32.4349" fill="white"/>
<path d="M266.428 4.71677C266.35 4.79523 266.289 4.88883 266.249 4.99181C266.208 5.09478 266.19 5.20494 266.193 5.31547V13.6972C266.188 13.8044 266.206 13.9114 266.247 14.0107C266.287 14.11 266.349 14.1991 266.428 14.2717C266.508 14.3443 266.601 14.4003 266.702 14.4364C266.804 14.4725 266.911 14.488 267.019 14.482H273.03C273.324 14.4788 273.616 14.536 273.888 14.6502C274.159 14.7643 274.404 14.9328 274.608 15.1454C274.823 15.3558 274.992 15.6078 275.106 15.886C275.22 16.1643 275.276 16.4629 275.271 16.7635C275.279 17.0646 275.225 17.3641 275.11 17.6427C274.996 17.9214 274.825 18.1731 274.608 18.3816C274.403 18.5927 274.158 18.7603 273.886 18.8743C273.615 18.9883 273.324 19.0464 273.03 19.0451H267.019C266.91 19.0412 266.802 19.0593 266.7 19.0982C266.599 19.1371 266.506 19.1961 266.428 19.2716C266.35 19.3501 266.289 19.4437 266.249 19.5466C266.208 19.6496 266.19 19.7598 266.193 19.8703V28.2602C266.193 28.363 266.214 28.4647 266.254 28.5593C266.295 28.6538 266.354 28.7392 266.428 28.8103C266.506 28.8858 266.599 28.9448 266.7 28.9837C266.802 29.0226 266.91 29.0407 267.019 29.0369H275.328C275.921 29.0432 276.489 29.2825 276.908 29.7031C277.327 30.1238 277.565 30.6922 277.569 31.286C277.574 31.5867 277.518 31.8853 277.404 32.1635C277.29 32.4418 277.12 32.6938 276.905 32.9041C276.697 33.1222 276.446 33.294 276.167 33.4083C275.888 33.5226 275.588 33.5769 275.287 33.5675H264.001C263.707 33.5707 263.415 33.5135 263.143 33.3994C262.872 33.2853 262.627 33.1167 262.423 32.9041C262.21 32.6926 262.041 32.4404 261.927 32.1625C261.813 31.8845 261.756 31.5864 261.76 31.286V2.28962C261.758 1.69006 261.992 1.11373 262.411 0.68526C262.83 0.256792 263.402 0.0106263 264.001 0H275.328C275.924 0 276.496 0.236968 276.918 0.658768C277.34 1.08057 277.577 1.65265 277.577 2.24916C277.577 2.84568 277.34 3.41776 276.918 3.83956C276.496 4.26136 275.924 4.49833 275.328 4.49833H267.043C266.931 4.49005 266.818 4.5052 266.713 4.54281C266.607 4.58042 266.51 4.63966 266.428 4.71677Z" fill="white"/>
<path d="M295.376 11.5128C295.611 10.8807 295.734 10.2128 295.74 9.53873C295.741 8.54785 295.46 7.57713 294.931 6.73941C294.385 5.94417 293.621 5.32337 292.731 4.95141C292.111 4.68032 291.441 4.53986 290.765 4.53879H287.601C287.491 4.5349 287.381 4.55371 287.278 4.59407C287.175 4.63442 287.081 4.69546 287.003 4.77341C286.927 4.8516 286.868 4.94419 286.829 5.04566C286.79 5.14713 286.772 5.25541 286.776 5.36402V13.7539C286.773 13.8563 286.792 13.9581 286.831 14.0529C286.87 14.1476 286.929 14.2331 287.003 14.304C287.081 14.382 287.175 14.443 287.278 14.4834C287.381 14.5237 287.491 14.5426 287.601 14.5387H290.765C291.756 14.5603 292.73 14.278 293.556 13.7296C294.389 13.2162 295.033 12.4471 295.392 11.5371L295.376 11.5128ZM298.629 14.8785C298.418 15.2181 298.18 15.5401 297.917 15.8412C297.667 16.1304 297.397 16.4008 297.108 16.6503C296.959 16.799 296.862 16.9921 296.833 17.2004C296.815 17.2966 296.817 17.3956 296.841 17.4906C296.865 17.5855 296.909 17.6742 296.97 17.7506C297.805 18.8317 298.343 20.1116 298.532 21.4641C298.621 22.0143 298.726 22.6615 298.831 23.414C298.936 24.1664 299.041 24.9431 299.146 25.7521C299.252 26.5612 299.365 27.3702 299.47 28.0903C299.575 28.8103 299.672 29.4576 299.769 29.943L299.907 31.0029C299.953 31.2958 299.938 31.595 299.863 31.8818C299.787 32.1686 299.654 32.4368 299.47 32.6695C299.295 32.9111 299.072 33.1151 298.817 33.2694C298.561 33.4236 298.277 33.525 297.981 33.5676C297.875 33.5894 297.765 33.5894 297.658 33.5676C297.12 33.5727 296.598 33.3798 296.193 33.0255C295.76 32.6649 295.472 32.1587 295.384 31.6016C295.384 31.6016 295.336 31.1809 295.231 30.4284C295.125 29.676 294.996 28.8103 294.858 27.7747C294.721 26.7392 294.575 25.7117 294.43 24.6599C294.284 23.6081 294.155 22.7344 294.058 22.0628C293.93 21.2268 293.508 20.4636 292.868 19.9108C292.24 19.3455 291.424 19.0341 290.579 19.037H287.553C287.442 19.0331 287.332 19.0519 287.229 19.0923C287.126 19.1326 287.033 19.1937 286.954 19.2716C286.879 19.3498 286.82 19.4424 286.781 19.5439C286.742 19.6453 286.724 19.7536 286.728 19.8622V31.2779C286.732 31.5785 286.676 31.877 286.562 32.1552C286.448 32.4333 286.279 32.6854 286.064 32.896C285.856 33.1133 285.604 33.2846 285.325 33.3988C285.047 33.5131 284.747 33.5678 284.446 33.5595C284.144 33.5627 283.845 33.5057 283.566 33.3918C283.287 33.2779 283.033 33.1094 282.82 32.8961C282.606 32.6828 282.438 32.4291 282.324 32.1499C282.21 31.8706 282.153 31.5714 282.156 31.2698V2.28963C282.154 1.98713 282.213 1.68732 282.332 1.40891C282.45 1.1305 282.624 0.879484 282.844 0.671523C283.054 0.457823 283.307 0.290534 283.585 0.180445C283.864 0.0703566 284.163 0.0199125 284.462 0.0323716H290.7C292.595 0.0187739 294.449 0.58323 296.015 1.65047C297.562 2.66984 298.775 4.12168 299.502 5.82518C299.737 6.42072 299.921 7.0351 300.053 7.66173C300.173 8.28003 300.233 8.90873 300.231 9.53873C300.268 11.4372 299.701 13.2985 298.612 14.8542" fill="white"/>
<path d="M311.372 5.18599C310.815 5.57424 310.38 6.11303 310.118 6.73937C309.932 7.17392 309.839 7.64222 309.843 8.11476C309.836 8.63606 309.944 9.15248 310.158 9.62768C310.395 10.2378 310.719 10.8101 311.121 11.3267C311.547 11.9247 312.023 12.485 312.545 13.0014C313.152 13.592 313.92 14.2878 314.835 15.0888L316.145 16.2053C316.615 16.6179 317.084 17.071 317.537 17.5564C317.983 17.999 318.405 18.4663 318.799 18.956C319.155 19.401 319.479 19.8379 319.786 20.2667C320.228 20.9037 320.582 21.5977 320.838 22.3298C321.253 23.3585 321.47 24.4566 321.477 25.566C321.483 27.176 320.988 28.7481 320.061 30.0643C319.174 31.3432 317.954 32.3558 316.534 32.9931C315.545 33.4125 314.484 33.6324 313.411 33.6403C311.787 33.6472 310.201 33.1497 308.872 32.2164C307.576 31.3476 306.559 30.1226 305.943 28.6889C305.543 27.6966 305.34 26.6359 305.344 25.566C305.341 25.2678 305.397 24.972 305.508 24.6954C305.62 24.4188 305.785 24.1669 305.994 23.9542C306.203 23.7414 306.452 23.5721 306.726 23.4558C307.001 23.3395 307.295 23.2785 307.594 23.2764C307.888 23.2741 308.179 23.3318 308.451 23.4458C308.722 23.5599 308.967 23.728 309.171 23.9398C309.386 24.1501 309.556 24.4022 309.67 24.6804C309.784 24.9586 309.84 25.2572 309.835 25.5579C309.844 26.2592 310.052 26.9435 310.433 27.532C310.761 28.0195 311.204 28.4176 311.724 28.6902C312.244 28.9629 312.824 29.1015 313.411 29.0935C314.115 29.1017 314.804 28.8926 315.385 28.4948C315.872 28.1676 316.27 27.724 316.543 27.2041C316.816 26.6842 316.954 26.1045 316.946 25.5175C316.95 24.9955 316.84 24.4791 316.623 24.0045C316.396 23.4245 316.088 22.8797 315.708 22.3864C315.243 21.7936 314.746 21.2264 314.22 20.6874C313.621 20.0806 312.844 19.3768 311.898 18.5839C311.323 18.058 310.733 17.5321 310.134 16.9658C309.553 16.4241 309.007 15.8458 308.5 15.2344C307.412 14.104 306.542 12.7818 305.935 11.3348C305.52 10.306 305.303 9.20797 305.296 8.09858C305.293 7.29162 305.416 6.48914 305.66 5.71996C305.901 4.9586 306.241 4.23228 306.671 3.5598C307.565 2.28316 308.798 1.28252 310.231 0.671484C311.211 0.2368 312.274 0.0187862 313.346 0.032333C314.964 0.0154178 316.548 0.495498 317.885 1.40772C319.166 2.2929 320.179 3.51316 320.814 4.93518C321.234 5.94239 321.448 7.02343 321.445 8.11476C321.41 8.6869 321.159 9.22434 320.741 9.6173C320.324 10.0103 319.773 10.2291 319.2 10.2291C318.626 10.2291 318.075 10.0103 317.657 9.6173C317.24 9.22434 316.989 8.6869 316.954 8.11476C316.949 7.4002 316.741 6.70178 316.356 6.10022C315.943 5.53226 315.384 5.08751 314.738 4.81383C314.302 4.63204 313.834 4.53854 313.362 4.53875C312.653 4.54258 311.962 4.76896 311.388 5.18599" fill="white"/>
<path d="M329.162 0.0482363C329.756 0.0503681 330.325 0.287164 330.744 0.706986C331.164 1.12681 331.401 1.69559 331.403 2.28931V24.7486C331.417 25.6105 331.672 26.4514 332.139 27.1757C332.604 27.8827 333.277 28.4282 334.065 28.7372C334.319 28.8649 334.592 28.9497 334.874 28.988C335.155 29.0357 335.439 29.06 335.723 29.0608C336.571 29.0626 337.4 28.8161 338.109 28.3516C338.818 27.8872 339.375 27.2253 339.712 26.4476C339.945 25.9111 340.069 25.3335 340.076 24.7486V2.28931C340.07 1.98851 340.125 1.68962 340.24 1.41125C340.354 1.13287 340.524 0.880964 340.74 0.671203C341.057 0.360496 341.46 0.150585 341.897 0.0678033C342.334 -0.0149786 342.785 0.0330521 343.195 0.205871C343.604 0.378691 343.954 0.668607 344.199 1.03925C344.445 1.40989 344.575 1.84476 344.574 2.28931V24.7486C344.593 26.5156 344.064 28.245 343.062 29.7C342.103 31.1338 340.748 32.2581 339.162 32.9362C337.813 33.5002 336.345 33.7215 334.889 33.5803C333.434 33.4392 332.036 32.9399 330.821 32.1271C330.121 31.6354 329.488 31.0562 328.935 30.4038C328.391 29.7458 327.944 29.0128 327.609 28.2275C327.152 27.1389 326.918 25.9697 326.921 24.789V2.28931C326.925 1.6941 327.163 1.12448 327.584 0.703591C328.005 0.282706 328.575 0.0443805 329.17 0.040144" fill="white"/>
<path d="M19.3124 20.38C19.7476 20.3804 20.173 20.2508 20.5341 20.0079C20.6901 19.9092 20.8316 19.7894 20.9548 19.6519L33.0905 8.57596L33.2281 8.44652C33.2871 8.39249 33.3593 8.35505 33.4375 8.33799C33.5156 8.32094 33.5969 8.32488 33.6731 8.34943C33.7802 8.36727 33.8769 8.4244 33.9442 8.50967C34.0115 8.59493 34.0446 8.70221 34.0371 8.81059V31.3265C34.0329 31.6292 34.0919 31.9294 34.2103 32.2081C34.3287 32.4867 34.504 32.7375 34.7248 32.9446C34.9359 33.1591 35.1879 33.329 35.4658 33.4444C35.7437 33.5597 36.042 33.6181 36.3429 33.6161C36.6446 33.6234 36.9444 33.5674 37.2231 33.4517C37.5018 33.3361 37.7532 33.1633 37.961 32.9446C38.1771 32.7351 38.3476 32.4833 38.4617 32.2048C38.5759 31.9264 38.6313 31.6273 38.6245 31.3265V2.28963C38.6384 1.76939 38.4598 1.26232 38.1228 0.865702C37.7978 0.458405 37.3444 0.173225 36.8365 0.0566508C36.6888 0.0173154 36.536 0.000944612 36.3834 0.0081097C36.1005 -0.00420616 35.818 0.0402779 35.5526 0.138937C35.2872 0.237597 35.0442 0.388431 34.8381 0.582535L19.6684 14.5549C19.5794 14.6409 19.4604 14.6889 19.3367 14.6889C19.2129 14.6889 19.094 14.6409 19.005 14.5549L3.79479 0.614898C3.58864 0.420794 3.34569 0.26996 3.08028 0.1713C2.81487 0.0726406 2.53239 0.0281566 2.24951 0.0404725C2.09422 0.0333662 1.93875 0.0497294 1.78835 0.0890136C1.28363 0.207853 0.833458 0.492772 0.510044 0.898065C0.178245 1.28549 -0.00272479 1.77956 0.000340399 2.28963V31.3022C-0.00497075 31.6036 0.0519201 31.9028 0.16746 32.1812C0.282999 32.4597 0.454707 32.7113 0.671855 32.9203C0.874166 33.1352 1.1188 33.3058 1.39034 33.4213C1.66187 33.5369 1.95441 33.595 2.24951 33.5918C2.55069 33.5957 2.8495 33.5382 3.12771 33.4227C3.40591 33.3072 3.65767 33.1363 3.86761 32.9203C4.09009 32.7145 4.26641 32.4639 4.38495 32.185C4.50349 31.9061 4.56155 31.6052 4.5553 31.3022V8.76204C4.54802 8.65247 4.58228 8.54418 4.65124 8.45872C4.72021 8.37326 4.81883 8.31691 4.92746 8.30089C5.00216 8.27527 5.08249 8.27078 5.15958 8.28791C5.23667 8.30504 5.30753 8.34313 5.36435 8.39797L5.50998 8.52742L17.6458 19.6033C17.7736 19.7391 17.9176 19.8586 18.0745 19.9593C18.4327 20.2021 18.8555 20.3318 19.2881 20.3315L19.3124 20.38Z" fill="white"/>
<path d="M369.696 20.38C370.128 20.3803 370.551 20.2507 370.909 20.0079C371.066 19.9072 371.21 19.7876 371.338 19.6519L383.474 8.57596L383.611 8.44652C383.67 8.39249 383.743 8.35505 383.821 8.338C383.899 8.32094 383.98 8.32489 384.056 8.34943C384.164 8.3655 384.262 8.42216 384.33 8.50785C384.397 8.59355 384.43 8.70182 384.42 8.81059V31.3265C384.416 31.63 384.475 31.9311 384.595 32.21C384.715 32.4889 384.893 32.7392 385.116 32.9446C385.326 33.1606 385.578 33.3315 385.856 33.447C386.134 33.5624 386.433 33.62 386.734 33.6161C387.029 33.6178 387.321 33.5591 387.593 33.4436C387.864 33.3281 388.109 33.1583 388.312 32.9446C388.528 32.7351 388.698 32.4833 388.813 32.2048C388.927 31.9264 388.982 31.6274 388.975 31.3265V2.28963C388.989 1.76939 388.811 1.26232 388.474 0.865702C388.147 0.459837 387.694 0.174997 387.187 0.0566508C387.04 0.0173154 386.887 0.000944611 386.734 0.0081097C386.451 -0.00420616 386.169 0.0402779 385.903 0.138937C385.638 0.237597 385.395 0.388431 385.189 0.582536L369.987 14.5549C369.898 14.6409 369.779 14.6889 369.655 14.6889C369.531 14.6889 369.412 14.6409 369.323 14.5549L354.17 0.614898C353.964 0.420794 353.721 0.26996 353.455 0.1713C353.19 0.0726407 352.908 0.0281566 352.625 0.0404725C352.469 0.0333662 352.314 0.0497294 352.163 0.0890136C351.659 0.207853 351.209 0.492772 350.885 0.898065C350.546 1.29389 350.365 1.80083 350.375 2.322V31.3346C350.37 31.636 350.427 31.9352 350.543 32.2136C350.658 32.492 350.83 32.7436 351.047 32.9527C351.254 33.1722 351.505 33.3455 351.784 33.4613C352.063 33.577 352.363 33.6325 352.665 33.6242C352.966 33.6281 353.265 33.5705 353.543 33.4551C353.821 33.3396 354.073 33.1687 354.283 32.9527C354.507 32.7473 354.684 32.497 354.804 32.2181C354.924 31.9392 354.984 31.6381 354.979 31.3346V8.76205C354.97 8.65328 355.002 8.545 355.07 8.45931C355.137 8.37362 355.235 8.31696 355.343 8.30089C355.419 8.27635 355.5 8.2724 355.579 8.28946C355.657 8.30651 355.729 8.34395 355.788 8.39797L355.926 8.52742L368.061 19.6033C368.189 19.7391 368.333 19.8586 368.49 19.9593C368.848 20.2021 369.271 20.3318 369.704 20.3315L369.696 20.38Z" fill="white"/>
</g>
<defs>
<clipPath id="clip0_319_785">
<rect width="389" height="33.5999" fill="white"/>
</clipPath>
</defs>
</svg>
